<svg xmlns="http://www.w3.org/2000/svg" width="24" height="26" viewBox="0 0 24 26"><defs><style>.a{fill:#4a4a4a;}</style></defs><title>icons</title><path class="a" d="M21.38,2.25H18.84V.87a.84.84,0,0,0-1.67,0V2.25H6.8V.87a.84.84,0,1,0-1.67,0V2.25H2.65A2.51,2.51,0,0,0,.14,4.76V23.46A2.51,2.51,0,0,0,2.65,26H21.35a2.51,2.51,0,0,0,2.51-2.51V4.76A2.47,2.47,0,0,0,21.38,2.25Zm-10,8V14h-4V10.29Zm5.42,0V14H12.68V10.29Zm5.45,0V14H18.1V10.29ZM6,14H1.81V10.29H6ZM1.81,15.36H6v4.06H1.81Zm5.53,0h4v4.06h-4Zm4,5.42V24.3h-4V20.78Zm1.33,0h4.06V24.3H12.68Zm0-1.33V15.36h4.06v4.06H12.68Zm5.42-4.09h4.12v4.06H18.1ZM2.65,3.92H5.13V5.68a.84.84,0,0,0,1.67,0V3.92H17.17V5.68a.84.84,0,0,0,1.67,0V3.92h2.54a.84.84,0,0,1,.84.84V8.65H1.81V4.76A.84.84,0,0,1,2.65,3.92ZM1.81,23.46V20.78H6V24.3H2.65A.84.84,0,0,1,1.81,23.46Zm19.57.84H18.1V20.78h4.12v2.68A.84.84,0,0,1,21.38,24.3Z"/></svg>