<svg xmlns="http://www.w3.org/2000/svg" width="60" height="60" viewBox="0 0 60 60"><defs><style>.a{fill:#fff;}</style></defs><title>icons</title><path class="a" d="M30.13,10a6.78,6.78,0,1,1-6.78,6.78A6.78,6.78,0,0,1,30.13,10m0-2A8.82,8.82,0,1,0,39,16.82,8.83,8.83,0,0,0,30.13,8Zm7,33.28-1.36,1.85c6.88.93,11,3.41,11,5.23C46.82,50.64,40.27,54,30,54s-16.82-3.32-16.82-5.61c0-1.83,4.19-4.31,11.11-5.24L23,41.25c-7,1.12-11.89,3.88-11.89,7.1C11.14,52.58,19.58,56,30,56s18.86-3.42,18.86-7.65C48.86,45.16,44,42.42,37.15,41.28ZM30.06,6c5.89,0,11.05,5.61,11.05,12,0,8.93-7.63,20.58-11,25.34C26.67,38.56,19,26.73,19,18c0-6.39,5.16-12,11.05-12m0-2C22.83,4,17,10.67,17,18c0,12,13.09,28.78,13.09,28.78S43.15,30.35,43.15,18c0-7.38-5.86-14-13.09-14Z"/></svg>