<svg xmlns="http://www.w3.org/2000/svg" width="60" height="60" viewBox="0 0 60 60"><defs><style>.a{fill:#fff;}</style></defs><title>icons</title><path class="a" d="M23.75,56.31a2.41,2.41,0,0,1-1.85-.9C18,50.94,21.08,28,21.7,23.64A12.73,12.73,0,0,1,18,19.93c-1.18-2.12-.28-13.47-.09-15.72A.75.75,0,0,1,19.4,4a65,65,0,0,1,2.11,8.58L23,3.89a.75.75,0,0,1,.74-.62h0a.75.75,0,0,1,.74.62l1.67,9.61,1.92-9.38a.75.75,0,0,1,1.48.09c.19,2.25,1.08,13.6-.09,15.72a12.71,12.71,0,0,1-3.67,3.71c.63,4.39,3.66,27.3-.2,31.76A2.41,2.41,0,0,1,23.75,56.31ZM19.13,8.66c-.26,4.68-.32,9.6.21,10.55a12.24,12.24,0,0,0,3.57,3.44.75.75,0,0,1,.34.74c-1.09,7.44-3.25,27.53-.22,31a.86.86,0,0,0,1.43,0c3-3.51.87-23.59-.22-31a.75.75,0,0,1,.34-.74,12.23,12.23,0,0,0,3.57-3.44c.48-.87.47-5,.27-9.31l-1.6,7.8a.75.75,0,0,1-.73.6h0a.75.75,0,0,1-.73-.62l-1.6-9.25-1.61,9.36a.75.75,0,0,1-1.49-.07A58.07,58.07,0,0,0,19.13,8.66ZM37.69,56.73a1.52,1.52,0,0,1-1.15-.54c-2.4-2.68.2-18.74,1.08-23.75a2.83,2.83,0,0,1-1.09-.51c-1.59-1.18-2.39-4-2.39-8.41C34.13,8.24,39.78,5.11,40,5a.75.75,0,0,1,.87.12c1.83,1.75,2.85,39.34-.59,48.85-.65,1.79-1.46,2.7-2.49,2.77ZM38.49,31a.76.76,0,0,1,.52.2.75.75,0,0,1,.23.68c-2.18,12-2.89,22.72-1.55,23.38.21,0,.49-.31.75-.8C42.16,47.65,41.27,13,40,6.9c-1.4,1.4-4.38,5.68-4.38,16.63,0,5,1.09,6.66,1.74,7.17a1.16,1.16,0,0,0,.94.29ZM39.78,6.11Z"/></svg>