<svg xmlns="http://www.w3.org/2000/svg" width="60" height="60" viewBox="0 0 60 60"><defs><style>.a{fill:#fff;}</style></defs><title>icons</title><path class="a" d="M30,53.65A23.65,23.65,0,1,1,53.65,30,23.67,23.67,0,0,1,30,53.65ZM30,7.86A22.15,22.15,0,1,0,52.15,30,22.17,22.17,0,0,0,30,7.86ZM17.66,40.18a.75.75,0,0,1-.46-1.35l12.05-9.2V10.7a.75.75,0,0,1,1.5,0V30a.75.75,0,0,1-.29.6L18.11,40A.75.75,0,0,1,17.66,40.18ZM30,58.58A28.58,28.58,0,1,1,58.58,30,28.62,28.62,0,0,1,30,58.58ZM30,2.92A27.08,27.08,0,1,0,57.08,30,27.11,27.11,0,0,0,30,2.92Z"/></svg>